<?xml version="1.0" encoding="UTF-8"?>
<svg xmlns="http://www.w3.org/2000/svg" xmlns:xlink="http://www.w3.org/1999/xlink" width="96pt" height="96pt" viewBox="0 0 96 96" version="1.1">
<g id="surface1">
<path style=" stroke:none;fill-rule:nonzero;fill:#4DB6AC;fill-opacity:1;" d="M 80 90 L 16 90 L 16 6 L 60 6 L 80 26 Z "/>
<path style=" stroke:none;fill-rule:nonzero;fill:#E0F2F1;fill-opacity:1;" d="M 77 28 L 58 28 L 58 9 Z "/>
<path style=" stroke:none;fill-rule:nonzero;fill:#00695C;fill-opacity:1;" d="M 39.863281 59.371094 C 39.765625 61.640625 39.125 63.359375 37.949219 64.523438 C 36.773438 65.691406 35.117188 66.273438 32.972656 66.273438 C 30.722656 66.273438 28.996094 65.535156 27.800781 64.054688 C 26.601563 62.570313 26 60.457031 26 57.714844 L 26 54.363281 C 26 51.628906 26.621094 49.523438 27.859375 48.039063 C 29.101563 46.558594 30.820313 45.820313 33.027344 45.820313 C 35.195313 45.820313 36.84375 46.425781 37.96875 47.636719 C 39.097656 48.851563 39.734375 50.59375 39.890625 52.859375 L 35.855469 52.859375 C 35.820313 51.457031 35.605469 50.488281 35.207031 49.953125 C 34.808594 49.421875 34.082031 49.15625 33.027344 49.15625 C 31.949219 49.15625 31.191406 49.53125 30.742188 50.28125 C 30.296875 51.035156 30.058594 52.273438 30.03125 53.992188 L 30.03125 57.753906 C 30.03125 59.730469 30.253906 61.089844 30.695313 61.828125 C 31.140625 62.566406 31.898438 62.9375 32.972656 62.9375 C 34.03125 62.9375 34.757813 62.679688 35.160156 62.164063 C 35.5625 61.648438 35.789063 60.714844 35.84375 59.367188 L 39.863281 59.367188 Z "/>
<path style=" stroke:none;fill-rule:nonzero;fill:#00695C;fill-opacity:1;" d="M 50.746094 60.777344 C 50.746094 59.96875 50.539063 59.355469 50.125 58.941406 C 49.707031 58.523438 48.953125 58.09375 47.859375 57.648438 C 45.863281 56.890625 44.429688 56.007813 43.554688 54.988281 C 42.679688 53.972656 42.242188 52.773438 42.242188 51.386719 C 42.242188 49.707031 42.835938 48.363281 44.027344 47.347656 C 45.214844 46.328125 46.726563 45.820313 48.558594 45.820313 C 49.78125 45.820313 50.867188 46.078125 51.824219 46.59375 C 52.785156 47.109375 53.519531 47.835938 54.035156 48.773438 C 54.546875 49.714844 54.804688 50.78125 54.804688 51.972656 L 50.800781 51.972656 C 50.800781 51.042969 50.601563 50.335938 50.207031 49.847656 C 49.808594 49.363281 49.234375 49.117188 48.488281 49.117188 C 47.789063 49.117188 47.238281 49.324219 46.851563 49.738281 C 46.457031 50.15625 46.261719 50.714844 46.261719 51.414063 C 46.261719 51.960938 46.480469 52.457031 46.917969 52.898438 C 47.355469 53.34375 48.128906 53.796875 49.242188 54.273438 C 51.183594 54.976563 52.59375 55.835938 53.472656 56.859375 C 54.351563 57.878906 54.792969 59.179688 54.792969 60.753906 C 54.792969 62.484375 54.242188 63.839844 53.136719 64.8125 C 52.035156 65.789063 50.535156 66.277344 48.640625 66.277344 C 47.355469 66.277344 46.183594 66.011719 45.125 65.484375 C 44.066406 64.957031 43.242188 64.199219 42.644531 63.214844 C 42.046875 62.230469 41.746094 61.066406 41.746094 59.726563 L 45.78125 59.726563 C 45.78125 60.875 46.007813 61.710938 46.453125 62.230469 C 46.898438 62.75 47.628906 63.011719 48.640625 63.011719 C 50.042969 63.007813 50.746094 62.265625 50.746094 60.777344 Z "/>
<path style=" stroke:none;fill-rule:nonzero;fill:#00695C;fill-opacity:1;" d="M 65.867188 60.777344 C 65.867188 59.96875 65.660156 59.355469 65.246094 58.941406 C 64.828125 58.523438 64.074219 58.09375 62.980469 57.648438 C 60.984375 56.890625 59.550781 56.007813 58.675781 54.988281 C 57.800781 53.972656 57.363281 52.773438 57.363281 51.386719 C 57.363281 49.707031 57.957031 48.363281 59.148438 47.347656 C 60.339844 46.328125 61.851563 45.820313 63.683594 45.820313 C 64.902344 45.820313 65.992188 46.078125 66.949219 46.59375 C 67.90625 47.109375 68.644531 47.835938 69.15625 48.773438 C 69.671875 49.714844 69.929688 50.78125 69.929688 51.972656 L 65.925781 51.972656 C 65.925781 51.042969 65.722656 50.335938 65.328125 49.847656 C 64.933594 49.363281 64.363281 49.117188 63.613281 49.117188 C 62.910156 49.117188 62.367188 49.324219 61.972656 49.738281 C 61.582031 50.15625 61.386719 50.714844 61.386719 51.414063 C 61.386719 51.960938 61.605469 52.457031 62.042969 52.898438 C 62.480469 53.34375 63.253906 53.796875 64.367188 54.273438 C 66.308594 54.976563 67.71875 55.835938 68.597656 56.859375 C 69.476563 57.878906 69.914063 59.179688 69.914063 60.753906 C 69.914063 62.484375 69.367188 63.839844 68.261719 64.8125 C 67.15625 65.789063 65.65625 66.277344 63.765625 66.277344 C 62.476563 66.277344 61.304688 66.011719 60.25 65.484375 C 59.195313 64.957031 58.367188 64.199219 57.769531 63.214844 C 57.171875 62.230469 56.875 61.066406 56.875 59.726563 L 60.90625 59.726563 C 60.90625 60.875 61.132813 61.710938 61.578125 62.230469 C 62.023438 62.75 62.753906 63.011719 63.765625 63.011719 C 65.164063 63.007813 65.867188 62.265625 65.867188 60.777344 Z "/>
</g>
</svg>
