<?xml version="1.0" encoding="UTF-8"?>
<svg xmlns="http://www.w3.org/2000/svg" xmlns:xlink="http://www.w3.org/1999/xlink" width="96pt" height="96pt" viewBox="0 0 96 96" version="1.1">
<g id="surface1">
<path style=" stroke:none;fill-rule:nonzero;fill:#4DB6AC;fill-opacity:1;" d="M 80 90 L 16 90 L 16 6 L 60 6 L 80 26 Z "/>
<path style=" stroke:none;fill-rule:nonzero;fill:#E0F2F1;fill-opacity:1;" d="M 77 28 L 58 28 L 58 9 Z "/>
<path style=" stroke:none;fill-rule:nonzero;fill:#00695C;fill-opacity:1;" d="M 31.996094 67.90625 L 28 67.90625 L 28 59.386719 L 22 59.386719 L 22 67.90625 L 18.039063 67.90625 L 18.039063 48 L 22 48 L 22 56.050781 L 28 56.050781 L 28 48 L 31.996094 48 Z M 46 48 L 34 48 L 34 51.351563 L 38 51.351563 L 38 67.90625 L 42 67.90625 L 42 51.351563 L 46 51.351563 Z M 48.070313 48 L 48.070313 67.90625 L 52 67.90625 L 52 54.21875 L 55.699219 67.90625 L 58.433594 67.90625 L 62 54.21875 L 62 67.902344 L 66 67.902344 L 66 48 L 60.828125 48 L 57.082031 62.394531 L 53.320313 48 Z M 72 48 L 68 48 L 68 67.90625 L 78 67.90625 L 78 64.570313 L 72 64.570313 Z "/>
</g>
</svg>
