<?xml version="1.0" encoding="utf-8"?>
<!-- Generator: Adobe Illustrator 18.0.0, SVG Export Plug-In . SVG Version: 6.00 Build 0)  -->
<!DOCTYPE svg PUBLIC "-//W3C//DTD SVG 1.1//EN" "http://www.w3.org/Graphics/SVG/1.1/DTD/svg11.dtd">
<svg version="1.1" id="Слой_1" xmlns="http://www.w3.org/2000/svg" xmlns:xlink="http://www.w3.org/1999/xlink" x="0px" y="0px"
	 viewBox="0 0 96 96" enable-background="new 0 0 96 96" xml:space="preserve">
<path fill="#FFD600" d="M80,90H16V6h44l20,20V90z"/>
<path fill="#F5F7E1" d="M77,28H58V9L77,28z"/>
<path d="M42.3,46h4v13.7c0,1.9-0.5,3.5-1.6,4.6c-1.1,1.2-2.4,1.7-4.1,1.7c-1.8,0-3.2-0.5-4.2-1.6c-1-1.1-1.5-2.6-1.5-4.5h4
	c0,1.9,0.6,2.8,1.7,2.8c1.2,0,1.7-1.1,1.7-3.2V46z M57.1,60.6c0-0.8-0.2-1.4-0.6-1.8c-0.4-0.4-1.1-0.8-2.2-1.3
	C52.4,56.8,51,56,50.1,55s-1.3-2.2-1.3-3.5c0-1.6,0.6-3,1.7-4c1.2-1,2.6-1.5,4.4-1.5c1.2,0,2.3,0.3,3.2,0.8c0.9,0.5,1.7,1.2,2.2,2.1
	c0.5,0.9,0.8,2,0.8,3.1h-3.9c0-0.9-0.2-1.6-0.6-2.1c-0.4-0.5-0.9-0.7-1.7-0.7c-0.7,0-1.2,0.2-1.6,0.6c-0.4,0.4-0.6,1-0.6,1.6
	c0,0.5,0.2,1,0.6,1.4c0.4,0.4,1.2,0.9,2.3,1.3c1.9,0.7,3.3,1.5,4.1,2.5c0.9,1,1.3,2.3,1.3,3.8c0,1.7-0.5,3-1.6,4S56.9,66,55.1,66
	c-1.3,0-2.4-0.3-3.4-0.8S49.8,64,49.2,63c-0.6-1-0.9-2.1-0.9-3.4h3.9c0,1.1,0.2,1.9,0.7,2.4s1.1,0.8,2.1,0.8
	C56.4,62.8,57.1,62.1,57.1,60.6z"/>
</svg>
