<?xml version="1.0" encoding="UTF-8"?>
<svg xmlns="http://www.w3.org/2000/svg" xmlns:xlink="http://www.w3.org/1999/xlink" width="96pt" height="96pt" viewBox="0 0 96 96" version="1.1">
<g id="surface1">
<path style=" stroke:none;fill-rule:nonzero;fill:#CFD95B;fill-opacity:1;" d="M 80 90 L 16 90 L 16 6 L 60 6 L 80 26 Z "/>
<path style=" stroke:none;fill-rule:nonzero;fill:#F5F7E1;fill-opacity:1;" d="M 77 28 L 58 28 L 58 9 Z "/>
<path style=" stroke:none;fill-rule:nonzero;fill:#696E2D;fill-opacity:1;" d="M 26.015625 46 L 30 46 L 30 59.65625 C 30 61.570313 29.464844 63.113281 28.402344 64.265625 C 27.335938 65.417969 25.960938 66 24.28125 66 C 22.472656 66 21.070313 65.460938 20.066406 64.390625 C 19.066406 63.3125 18.5625 61.820313 18.5625 59.902344 L 22.5625 59.902344 C 22.5625 61.765625 23.136719 62.691406 24.28125 62.691406 C 25.4375 62.691406 26.015625 61.617188 26.015625 59.46875 C 26.015625 59.46875 26.015625 46 26.015625 46 Z M 40.796875 60.625 C 40.796875 59.835938 40.59375 59.230469 40.1875 58.824219 C 39.78125 58.421875 39.042969 58.003906 37.972656 57.566406 C 36.023438 56.824219 34.617188 55.960938 33.761719 54.964844 C 32.90625 53.96875 32.476563 52.792969 32.476563 51.441406 C 32.476563 49.800781 33.058594 48.484375 34.222656 47.488281 C 35.386719 46.496094 36.867188 46 38.65625 46 C 39.851563 46 40.917969 46.253906 41.855469 46.757813 C 42.789063 47.261719 43.511719 47.96875 44.011719 48.886719 C 44.515625 49.804688 44.769531 50.851563 44.769531 52.015625 L 40.851563 52.015625 C 40.851563 51.105469 40.65625 50.414063 40.269531 49.9375 C 39.878906 49.460938 39.320313 49.222656 38.59375 49.222656 C 37.902344 49.222656 37.371094 49.421875 36.988281 49.832031 C 36.605469 50.238281 36.414063 50.785156 36.414063 51.46875 C 36.414063 52.003906 36.628906 52.484375 37.054688 52.917969 C 37.484375 53.351563 38.238281 53.800781 39.328125 54.261719 C 41.226563 54.945313 42.605469 55.789063 43.464844 56.785156 C 44.324219 57.785156 44.757813 59.054688 44.757813 60.597656 C 44.757813 62.292969 44.214844 63.617188 43.136719 64.570313 C 42.058594 65.523438 40.589844 66 38.738281 66 C 37.480469 66 36.335938 65.738281 35.300781 65.222656 C 34.265625 64.707031 33.457031 63.96875 32.875 63.003906 C 32.292969 62.042969 32 60.902344 32 59.597656 L 35.945313 59.597656 C 35.945313 60.71875 36.160156 61.535156 36.597656 62.042969 C 37.035156 62.550781 37.746094 62.804688 38.738281 62.804688 C 40.109375 62.804688 40.796875 62.082031 40.796875 60.625 Z M 76 66 L 71.980469 66 L 66.101563 52.945313 L 66.101563 66 L 62.082031 66 L 62.082031 46.09375 L 66.101563 46.09375 L 71.992188 59.164063 L 71.992188 46.09375 L 76 46.09375 Z M 60 57.75 C 60 60.363281 59.382813 62.390625 58.152344 63.835938 C 56.921875 65.277344 55.214844 66 53.027344 66 C 50.847656 66 49.136719 65.28125 47.890625 63.855469 C 46.644531 62.425781 46.015625 60.425781 45.996094 57.847656 L 45.996094 54.519531 C 45.996094 51.84375 46.617188 49.753906 47.851563 48.253906 C 49.089844 46.746094 50.804688 46 53 46 C 55.160156 46 56.859375 46.738281 58.105469 48.214844 C 59.351563 49.691406 59.980469 51.761719 60 54.425781 Z M 56.066406 54.488281 C 56.066406 52.734375 55.816406 51.429688 55.320313 50.570313 C 54.820313 49.714844 54.046875 49.289063 53 49.289063 C 51.960938 49.289063 51.191406 49.699219 50.695313 50.523438 C 50.195313 51.347656 49.9375 52.605469 49.921875 54.289063 L 49.921875 57.746094 C 49.921875 59.453125 50.175781 60.703125 50.679688 61.515625 C 51.1875 62.320313 51.96875 62.722656 53.027344 62.722656 C 54.046875 62.722656 54.804688 62.332031 55.304688 61.539063 C 55.804688 60.753906 56.054688 59.527344 56.066406 57.871094 Z "/>
</g>
</svg>
