<?xml version="1.0" encoding="utf-8"?>
<!-- Generator: Adobe Illustrator 18.0.0, SVG Export Plug-In . SVG Version: 6.00 Build 0)  -->
<!DOCTYPE svg PUBLIC "-//W3C//DTD SVG 1.1//EN" "http://www.w3.org/Graphics/SVG/1.1/DTD/svg11.dtd">
<svg version="1.1" id="Слой_1" xmlns="http://www.w3.org/2000/svg" xmlns:xlink="http://www.w3.org/1999/xlink" x="0px" y="0px"
	 viewBox="0 0 612 792" enable-background="new 0 0 612 792" xml:space="preserve">
<path fill="#1082CF" d="M510,663.8H102V128.3h280.5L510,255.8V663.8z"/>
<path fill="#F5F7E1" d="M490.9,268.5H369.8V147.4L490.9,268.5z"/>
<path fill="#FFFFFF" d="M364,476.3c0-5.1-1.3-8.9-3.8-11.5c-2.6-2.6-7-5.1-14-8.3c-12.1-4.5-21-9.6-26.8-15.9
	c-5.7-6.4-8.3-14-8.3-22.3c0-10.2,3.8-19.1,10.8-25.5c7.6-6.4,16.6-9.6,28.1-9.6c7.6,0,14.7,1.9,20.4,5.1s10.8,7.6,14,13.4
	c3.2,5.7,5.1,12.8,5.1,19.8h-24.9c0-5.7-1.3-10.2-3.8-13.4c-2.6-3.2-5.7-4.5-10.8-4.5c-4.5,0-7.7,1.3-10.2,3.8
	c-2.5,2.6-3.8,6.4-3.8,10.2c0,3.2,1.3,6.4,3.8,8.9c2.6,2.6,7.7,5.7,14.7,8.3c12.1,4.5,21,9.6,26.1,15.9c5.7,6.4,8.3,14.7,8.3,24.2
	c0,10.8-3.2,19.1-10.2,25.5c-7,6.4-15.9,10.2-27.4,10.2c-8.3,0-15.3-1.9-21.7-5.1s-12.1-7.6-15.9-14c-3.8-6.4-5.7-13.4-5.7-21.7
	h24.9c0,7,1.3,12.1,4.5,15.3s7,5.1,13.4,5.1C359.6,490.4,364,485.9,364,476.3z"/>
<g>
	<path fill="#FFFFFF" d="M299.1,404.7h-31.5v106h-25.8v-106h-31v-21.5h88.3L299.1,404.7L299.1,404.7z"/>
</g>
</svg>
